<svg xmlns="http://www.w3.org/2000/svg" width="256" height="256" viewBox="0 0 256 256" role="img" aria-label="Featherweight VIP — favicon">
  <title>Featherweight VIP — favicon</title>
  <defs>
    <linearGradient id="fw-feather" x1="56" y1="118" x2="214" y2="56" gradientUnits="userSpaceOnUse">
      <stop offset="0" stop-color="#22D3EE"/>
      <stop offset="1" stop-color="#4F46E5"/>
    </linearGradient>
  </defs>
  <rect x="8" y="8" width="240" height="240" rx="52" fill="#0B1220"/>
  <ellipse cx="128" cy="134" rx="74" ry="7" fill="#000000" opacity="0.26"/>
  <g fill="#22D3EE" opacity="0.55">
    <circle cx="30" cy="52" r="3.4"/>
    <circle cx="18" cy="39" r="2.4"/>
  </g>
  <g transform="translate(133 78) scale(1.55) translate(-133 -90)">
    <path d="M58,93 C 60,78 76,68 94,71 C 100,72 103,74 107,77 C 146,84 182,80 204,63 C 190,73 150,99 112,110 C 88,116 64,113 58,93 Z" fill="url(#fw-feather)"/>
    <path d="M72,96 C 112,99 162,92 200,66" fill="none" stroke="#FFFFFF" stroke-width="2.6" stroke-linecap="round" opacity="0.55"/>
    <path d="M84,87 C 104,91 126,91 146,87" fill="none" stroke="#FFFFFF" stroke-width="1.8" stroke-linecap="round" opacity="0.28"/>
  </g>
</svg>
