<svg xmlns="http://www.w3.org/2000/svg" width="256" height="256" viewBox="0 0 256 256" role="img" aria-label="Featherweight VIP — Verification IP">
  <title>Featherweight VIP — Verification IP</title>
  <defs>
    <linearGradient id="fw-feather" x1="56" y1="118" x2="214" y2="56" gradientUnits="userSpaceOnUse">
      <stop offset="0" stop-color="#22D3EE"/>
      <stop offset="1" stop-color="#4F46E5"/>
    </linearGradient>
  </defs>
  <rect x="8" y="8" width="240" height="240" rx="52" fill="#0B1220"/>
  <!-- waveform substrate: signal behavior under test -->
  <g>
    <path d="M50.0,164.0 H76.0 V151.0 H102.0 H128.0 H154.0 V164.0 H180.0 V151.0 H206.0" fill="none" stroke="#5E7088" stroke-width="2.6" stroke-linecap="round" stroke-linejoin="round" opacity="0.85"/>
    <path d="M50.0,173.0 H76.0 V186.0 H102.0 V173.0 H128.0 H154.0 V186.0 H180.0 V173.0 H206.0" fill="none" stroke="#818FAA" stroke-width="3.0" stroke-linecap="round" stroke-linejoin="round" opacity="0.95"/>
    <path d="M50.0,208.0 H76.0 V193.0 H102.0 V208.0 H128.0 V193.0 H154.0 H180.0 V208.0 H206.0" fill="none" stroke="#9AA9C4" stroke-width="3.4" stroke-linecap="round" stroke-linejoin="round" opacity="1.0"/>
  </g>
  <!-- sampling cursor (waveform-viewer marker) -->
  <line x1="150.0" y1="142" x2="150.0" y2="216" stroke="#65D6E4" stroke-width="1.8" stroke-dasharray="4 4" opacity="0.85"/>
  <g><circle cx="150.0" cy="151" r="3.1" fill="#65D6E4"/><circle cx="150.0" cy="173" r="3.1" fill="#65D6E4"/><circle cx="150.0" cy="193" r="3.1" fill="#65D6E4"/></g>
  <!-- pass-check at the cursor head: the property held at this sample -->
  <g transform="translate(150.0 138)">
    <circle r="10" fill="#0B1220" stroke="#34D399" stroke-width="2.4"/>
    <path d="M-4.4,0.4 L-1.2,3.6 L4.8,-3.4" fill="none" stroke="#34D399" stroke-width="2.6" stroke-linecap="round" stroke-linejoin="round"/>
  </g>
  <ellipse cx="128" cy="134" rx="74" ry="7" fill="#000000" opacity="0.26"/>
  <g fill="#22D3EE" opacity="0.55">
    <circle cx="30" cy="52" r="3.4"/>
    <circle cx="18" cy="39" r="2.4"/>
  </g>
  <g transform="translate(133 70) scale(1.36) translate(-133 -90)">
    <path d="M58,93 C 60,78 76,68 94,71 C 100,72 103,74 107,77 C 146,84 182,80 204,63 C 190,73 150,99 112,110 C 88,116 64,113 58,93 Z" fill="url(#fw-feather)"/>
    <path d="M72,96 C 112,99 162,92 200,66" fill="none" stroke="#FFFFFF" stroke-width="2.6" stroke-linecap="round" opacity="0.55"/>
    <path d="M84,87 C 104,91 126,91 146,87" fill="none" stroke="#FFFFFF" stroke-width="1.8" stroke-linecap="round" opacity="0.28"/>
  </g>
</svg>
